<?xml version="1.0" encoding="utf-8"?>
<!-- Generator: Adobe Illustrator 16.0.0, SVG Export Plug-In . SVG Version: 6.00 Build 0)  -->
<!DOCTYPE svg PUBLIC "-//W3C//DTD SVG 1.1//EN" "http://www.w3.org/Graphics/SVG/1.1/DTD/svg11.dtd">
<svg version="1.1" id="Layer_1" xmlns="http://www.w3.org/2000/svg" xmlns:xlink="http://www.w3.org/1999/xlink" x="0px" y="0px"
	 width="259px" height="274.276px" viewBox="0 0 259 274.276" enable-background="new 0 0 259 274.276" xml:space="preserve">
<g>
	<defs>
		<rect id="SVGID_1_" x="-477" y="-104" width="841.89" height="595.276"/>
	</defs>
	<clipPath id="SVGID_2_">
		<use xlink:href="#SVGID_1_"  overflow="visible"/>
	</clipPath>
	<path clip-path="url(#SVGID_2_)" d="M137.995,128.515c5.109,2.855,9.066,6.864,11.873,12.023
		c2.804,5.162,4.208,11.098,4.208,17.809c0,7.014-1.604,13.202-4.811,18.561c-3.207,5.36-7.813,9.52-13.825,12.474
		c-6.012,2.956-12.977,4.433-20.891,4.433c-6.713,0-13.326-1.127-19.838-3.382c-6.514-2.254-11.872-5.283-16.08-9.092l6.462-14.127
		c9.717,7.416,19.636,11.121,29.756,11.121c6.713,0,11.848-1.676,15.405-5.034c3.556-3.356,5.336-8.14,5.336-14.353
		c0-5.911-1.829-10.644-5.485-14.202c-3.659-3.555-8.543-5.335-14.653-5.335c-4.208,0-8.167,0.777-11.873,2.329
		c-3.708,1.555-6.965,3.833-9.769,6.838H82.088v-62.97h67.028v15.029h-48.092v29.155c5.409-3.705,11.821-5.56,19.236-5.56
		C126.973,124.232,132.886,125.66,137.995,128.515"/>
</g>
<text transform="matrix(1 0 0 1 163.4863 186.6128)" font-family="'Roboto-Regular'" font-size="154.9333"> </text>
<g>
	<defs>
		<rect id="SVGID_3_" x="-477" y="-104" width="841.89" height="595.276"/>
	</defs>
	<clipPath id="SVGID_4_">
		<use xlink:href="#SVGID_3_"  overflow="visible"/>
	</clipPath>
	<path clip-path="url(#SVGID_4_)" d="M116.849,27.573c-35.456,0-67.05,16.79-87.292,42.823h9.047
		c19.001-21.923,47.024-35.823,78.245-35.823c57.101,0,103.555,46.455,103.555,103.555c0,54.267-42,101.445-95.209,106.091
		c0,0,1.494,4.048,3.505,3.832c55.408-5.932,98.704-52.966,98.704-109.923C227.403,77.167,177.809,27.573,116.849,27.573"/>
</g>
</svg>
