<?xml version="1.0" encoding="utf-8"?>
<!-- Generator: Adobe Illustrator 22.0.1, SVG Export Plug-In . SVG Version: 6.00 Build 0)  -->
<svg version="1.1" id="Layer_1" xmlns="http://www.w3.org/2000/svg" xmlns:xlink="http://www.w3.org/1999/xlink" x="0px" y="0px"
	 viewBox="0 0 567.7 337.9" style="enable-background:new 0 0 567.7 337.9;" xml:space="preserve">
<style type="text/css">
	.st0{font-family:'Roboto-Regular';}
	.st1{font-size:154.9333px;}
</style>
<g>
	<g>
		<path d="M473.3,102.5c5.1,2.9,9.1,6.9,11.9,12c2.8,5.2,4.2,11.1,4.2,17.8c0,7-1.6,13.2-4.8,18.6c-3.2,5.4-7.8,9.5-13.8,12.5
			c-6,3-13,4.4-20.9,4.4c-6.7,0-13.3-1.1-19.8-3.4c-6.5-2.3-11.9-5.3-16.1-9.1l6.5-14.1c9.7,7.4,19.6,11.1,29.8,11.1
			c6.7,0,11.8-1.7,15.4-5c3.6-3.4,5.3-8.1,5.3-14.4c0-5.9-1.8-10.6-5.5-14.2c-3.7-3.6-8.5-5.3-14.7-5.3c-4.2,0-8.2,0.8-11.9,2.3
			c-3.7,1.6-7,3.8-9.8,6.8h-11.7v-63h67v15h-48.1v29.2c5.4-3.7,11.8-5.6,19.2-5.6C462.3,98.3,468.2,99.7,473.3,102.5z"/>
	</g>
	<text transform="matrix(1 0 0 1 498.7726 160.6453)" class="st0 st1"> </text>
	<g>
		<path d="M154.1,222.2l-2.8,25.6H147c0.2-12.7-5.8-19.6-16.8-19.6h-11l-12.4,88c-1.3,8.6,0.3,11,11.2,12.6l-0.5,3.5H75.9l0.5-3.5
			c11.2-1.6,13.5-3.9,14.8-12.6l12.4-88h-11c-11,0-19.2,6.9-22.5,19.6h-4.4l4.4-25.6H154.1z"/>
		<path d="M196.1,268.2c-17.1-1.9-25.3,12.4-27.8,30.2l-4.7,33.8h-15.7l8.5-62.4c1.1-7.2-0.9-8.6-3.6-8.6c-2.8,0-7.7,3-12.9,14.9
			l-3.6-1.7c4.4-12.6,11.8-22.3,24-22.3c11.8,0,13,9.1,11.9,17.6l-1.1,8h0.3c6.6-15.9,14.8-25.6,24.8-25.6
			C208.9,252,206,269.3,196.1,268.2z"/>
		<path d="M280.6,252.8l-9.1,63.3c-0.9,7.1,0.8,8.6,3.5,8.6c2.8,0,7.5-3.1,11.8-14.9l4.1,1.7c-5,13.8-10.8,22.2-23.1,22.2
			c-10.8,0-12.7-9.3-11.9-15.7l0.6-5.3h-0.3c-6.1,13-13.5,21.1-26.4,21.1c-16,0-25.5-17.3-21.5-40.9c3.8-22.3,21.1-40.9,44-40.9
			c7.7,0,14,2.7,18.1,7.2l6.4-6.4H280.6z M236.7,324c12.3,0,20.7-18.9,22.9-34.3l1.3-9c2.5-17.6-2.5-23.6-10.4-23.6
			c-11.8,0-22.5,12.6-25.9,35.7C221.5,313.9,227,324,236.7,324z"/>
		<path d="M303.4,310.2l5.5-40.4c0.9-7.2-1.1-8.6-3.8-8.6c-2.8,0-7.7,3-12.7,14.9l-3.8-1.7c4.6-12.6,11.9-22.3,24.2-22.3
			c11.6,0,13,9.1,11.8,17.8l-5.5,40.1c-1.1,8.2,1.9,13.7,11.3,13.7c15.7,0,35.4-13.7,20.4-60c-4.4-13.4,14.6-16,17.1-2.4
			c7.1,38-17,72.6-45.7,72.6C308.4,333.7,301,327.5,303.4,310.2z"/>
		<path d="M395.6,296c-0.2,17.1,8.6,25.6,19.2,25.6c9.4,0,19.8-5.2,24.2-12.6h3.5c-4.9,12.6-16.5,24.7-33.9,24.7
			c-21.7,0-31.4-18.9-28.4-40.1c3.8-26.7,22.6-41.6,42-41.6C458.6,252,458.1,302.6,395.6,296z M395.9,290.7
			c37.1,6.1,44.9-33.2,24.5-33.2C408.2,257.5,398.1,269.9,395.9,290.7z"/>
		<path d="M469.8,233.7c1.1-7.9,1.3-11.8-9.6-11.8l0.3-3.6l15.6,1.8l10.4-7l2-0.1L474,316.1c-0.9,7.2,1.1,8.6,3.8,8.6
			c2.8,0,7.7-3.1,12.9-14.9l3.6,1.7c-4.4,12.6-11.8,22.2-24,22.2c-11.8,0-13.2-9-11.9-17.6L469.8,233.7z"/>
	</g>
</g>
<path d="M452.1,1.6c-35.5,0-67,16.8-87.3,42.8h9c19-21.9,47-35.8,78.2-35.8c57.1,0,103.6,46.5,103.6,103.6
	c0,54.3-42,101.4-95.2,106.1c0,0,1.5,4,3.5,3.8c55.4-5.9,98.7-53,98.7-109.9C562.7,51.2,513.1,1.6,452.1,1.6z"/>
<g>
	<path d="M85.2,120.6c3.4,4.5,5.1,10.1,5.1,16.8c0,9.2-3.2,16.3-9.7,21.5c-6.5,5.2-15.5,7.8-27.1,7.8H4.6V59.1h47.3
		c11.1,0,19.8,2.5,26.1,7.5c6.3,5,9.5,11.9,9.5,20.6c0,5.6-1.5,10.5-4.5,14.7c-3,4.2-7.1,7.2-12.3,9.1
		C77,112.9,81.8,116.1,85.2,120.6z M23.6,104.4h25.1c13.5,0,20.2-5,20.2-15.1c0-5-1.7-8.8-5-11.3c-3.3-2.5-8.4-3.8-15.3-3.8H23.6
		V104.4z M66.8,147.8c3.3-2.5,4.9-6.5,4.9-11.9c0-5.5-1.6-9.6-4.9-12.2c-3.3-2.6-8.4-3.9-15.5-3.9H23.6v31.9h27.6
		C58.3,151.5,63.5,150.3,66.8,147.8z"/>
	<path d="M108.8,166.6V59.1h71.9v15.4h-52.9v29.8h49.7v15.4h-49.7v31.6h52.9v15.4H108.8z"/>
	<path d="M210.4,164.7c-7.2-2.2-13.3-5.4-18.3-9.5l6.6-14.2c5.2,3.9,10.7,6.8,16.4,8.7c5.7,1.9,11.9,2.8,18.7,2.8
		c7.4,0,13.2-1.3,17.3-3.9c4.1-2.6,6.1-6.3,6.1-11c0-4-1.9-7.1-5.7-9.3c-3.8-2.2-10-4.2-18.7-6.1c-13.5-2.9-23.3-6.7-29.4-11.3
		c-6.1-4.6-9.2-11.4-9.2-20.2c0-6.3,1.7-12,5.1-16.9c3.4-4.9,8.3-8.8,14.6-11.6c6.3-2.8,13.6-4.2,21.8-4.2c7.6,0,14.7,1.1,21.5,3.4
		c6.8,2.3,12.4,5.4,16.7,9.4l-6.5,14.2c-9.6-7.6-20.1-11.5-31.7-11.5c-6.9,0-12.4,1.4-16.5,4.3c-4,2.9-6,6.8-6,11.7
		c0,4.2,1.8,7.5,5.4,9.7c3.6,2.2,9.7,4.3,18.3,6.2c9,2.1,16.3,4.4,21.9,6.9c5.6,2.5,10,5.6,13,9.5c3,3.9,4.5,8.7,4.5,14.6
		c0,6.4-1.7,12.1-5.1,16.8c-3.4,4.8-8.4,8.5-14.8,11.1c-6.4,2.6-14,3.9-22.8,3.9C225.3,168,217.6,166.9,210.4,164.7z"/>
	<path d="M317.4,166.6V75.1h-35v-16h86.9v16H337v91.5H317.4z"/>
</g>
</svg>
