<?xml version="1.0" encoding="utf-8"?>
<!-- Generator: Adobe Illustrator 22.0.1, SVG Export Plug-In . SVG Version: 6.00 Build 0)  -->
<svg version="1.1" id="Layer_1" xmlns="http://www.w3.org/2000/svg" xmlns:xlink="http://www.w3.org/1999/xlink" x="0px" y="0px"
	 viewBox="0 0 20 20" style="enable-background:new 0 0 20 20;" xml:space="preserve">
<style type="text/css">
	.st0{fill:none;stroke:#000000;stroke-width:0.1569;stroke-miterlimit:10;}
</style>
<g>
	<path d="M-190,19.4c-5.2,0-9.4-4.2-9.4-9.4c0-5.2,4.2-9.4,9.4-9.4s9.4,4.2,9.4,9.4C-180.6,15.2-184.8,19.4-190,19.4z M-190,1.4
		c-4.7,0-8.6,3.9-8.6,8.6c0,4.7,3.9,8.6,8.6,8.6c4.7,0,8.6-3.9,8.6-8.6C-181.4,5.3-185.3,1.4-190,1.4z"/>
	<path d="M-186.6,11.9c0,0.9-0.7,1.6-1.6,1.6h-3.8c-0.9,0-1.6-0.7-1.6-1.6V8.1c0-0.9,0.7-1.6,1.6-1.6h3.8c0.9,0,1.6,0.7,1.6,1.6
		V11.9z M-188.1,5.8h-3.8c-1.3,0-2.3,1-2.3,2.3v3.8c0,1.3,1,2.3,2.3,2.3h3.8c1.3,0,2.3-1,2.3-2.3V8.1
		C-185.8,6.8-186.8,5.8-188.1,5.8"/>
	<path class="st0" d="M-186.6,11.9c0,0.9-0.7,1.6-1.6,1.6h-3.8c-0.9,0-1.6-0.7-1.6-1.6V8.1c0-0.9,0.7-1.6,1.6-1.6h3.8
		c0.9,0,1.6,0.7,1.6,1.6V11.9z M-188.1,5.8h-3.8c-1.3,0-2.3,1-2.3,2.3v3.8c0,1.3,1,2.3,2.3,2.3h3.8c1.3,0,2.3-1,2.3-2.3V8.1
		C-185.8,6.8-186.8,5.8-188.1,5.8z"/>
	<path d="M-190,11.4c-0.8,0-1.4-0.6-1.4-1.4c0-0.8,0.6-1.4,1.4-1.4s1.4,0.6,1.4,1.4C-188.6,10.8-189.2,11.4-190,11.4 M-190,7.8
		c-1.2,0-2.2,1-2.2,2.2c0,1.2,1,2.2,2.2,2.2s2.2-1,2.2-2.2C-187.8,8.8-188.8,7.8-190,7.8"/>
	<path class="st0" d="M-190,11.4c-0.8,0-1.4-0.6-1.4-1.4c0-0.8,0.6-1.4,1.4-1.4s1.4,0.6,1.4,1.4C-188.6,10.8-189.2,11.4-190,11.4z
		 M-190,7.8c-1.2,0-2.2,1-2.2,2.2c0,1.2,1,2.2,2.2,2.2s2.2-1,2.2-2.2C-187.8,8.8-188.8,7.8-190,7.8z"/>
	<path d="M-187.8,7.2c-0.1,0-0.3,0.1-0.4,0.2s-0.2,0.2-0.2,0.4c0,0.1,0.1,0.3,0.2,0.4c0.1,0.1,0.2,0.2,0.4,0.2s0.3-0.1,0.4-0.2
		c0.1-0.1,0.2-0.2,0.2-0.4c0-0.1-0.1-0.3-0.2-0.4C-187.5,7.3-187.6,7.2-187.8,7.2"/>
	<path class="st0" d="M-187.8,7.2c-0.1,0-0.3,0.1-0.4,0.2s-0.2,0.2-0.2,0.4c0,0.1,0.1,0.3,0.2,0.4c0.1,0.1,0.2,0.2,0.4,0.2
		s0.3-0.1,0.4-0.2c0.1-0.1,0.2-0.2,0.2-0.4c0-0.1-0.1-0.3-0.2-0.4C-187.5,7.3-187.6,7.2-187.8,7.2z"/>
</g>
<g>
	<g>
		<path d="M-150,19.4c-5.2,0-9.4-4.2-9.4-9.4c0-5.2,4.2-9.4,9.4-9.4s9.4,4.2,9.4,9.4C-140.6,15.2-144.8,19.4-150,19.4z M-150,1.4
			c-4.7,0-8.6,3.9-8.6,8.6c0,4.7,3.9,8.6,8.6,8.6s8.6-3.9,8.6-8.6C-141.4,5.3-145.3,1.4-150,1.4z"/>
		<path d="M-151.9,14.4c-0.2-0.5-0.3-1-0.2-1.5c0.1-0.4,0.7-3,0.7-3s-0.2-0.3-0.2-0.9c0-0.8,0.5-1.4,1-1.4c0.5,0,0.7,0.4,0.7,0.8
			c0,0.5-0.3,1.2-0.5,1.9c-0.1,0.6,0.3,1,0.8,1c1,0,1.7-1.3,1.7-2.9c0-1.2-0.8-2.1-2.2-2.1c-1.6,0-2.6,1.2-2.6,2.6
			c0,0.5,0.1,0.8,0.4,1.1c0.1,0.1,0.1,0.2,0.1,0.3c0,0.1-0.1,0.3-0.1,0.4c0,0.1-0.1,0.2-0.3,0.1c-0.8-0.3-1.1-1.1-1.1-2.1
			c0-1.5,1.3-3.4,3.8-3.4c2.1,0,3.4,1.5,3.4,3.1c0,2.1-1.2,3.7-2.9,3.7c-0.6,0-1.1-0.3-1.3-0.7c0,0-0.3,1.3-0.4,1.5
			C-151.1,13.7-151.6,14.2-151.9,14.4"/>
	</g>
</g>
<g>
	<g>
		<path d="M-110,19.5c-5.2,0-9.5-4.3-9.5-9.5s4.3-9.5,9.5-9.5c5.2,0,9.5,4.3,9.5,9.5S-104.8,19.5-110,19.5z M-110,1.3
			c-4.8,0-8.7,3.9-8.7,8.7s3.9,8.7,8.7,8.7c4.8,0,8.7-3.9,8.7-8.7S-105.2,1.3-110,1.3z"/>
		<path d="M-108,10.4l0.2-1.5h-1.5v-1c0-0.4,0.1-0.7,0.8-0.7h0.8V5.8c-0.1,0-0.6-0.1-1.2-0.1c-1.2,0-2,0.7-2,2v1.1h-1.3v1.5h1.3v3.9
			h1.6v-3.9H-108z"/>
	</g>
</g>
<path d="M-60.7,8.3c-0.3-1.5-0.9-2.9-1.8-4c-0.4-0.6-1.7-1.7-1.7-1.7c-1.6-1.3-3.7-2-5.8-2c-2.5,0-4.9,1-6.7,2.8
	c-1.8,1.8-2.8,4.2-2.8,6.7c0,2.5,1,4.9,2.8,6.7c1.8,1.8,4.2,2.8,6.7,2.8c2.5,0,4.9-1,6.7-2.8c1.8-1.8,2.8-4.2,2.8-6.7
	C-60.5,9.5-60.6,8.9-60.7,8.3C-60.7,8.3-60.7,8.3-60.7,8.3z M-72.5,18.3L-72.5,18.3L-72.5,18.3c-0.2-0.1-0.4-0.2-0.6-0.2
	c0,0,0,0-0.1,0c-0.4-0.2-0.8-0.3-1.1-0.6c0,0-0.1,0-0.1-0.1c-0.4-0.2-0.7-0.5-1-0.7c0,0-0.1,0-0.1-0.1c-0.3-0.3-0.6-0.6-0.9-0.9
	c0,0,0,0,0,0c-0.1-0.2-0.3-0.3-0.4-0.5c-0.1-0.2-0.2-0.4-0.3-0.6c0,0,0,0,0,0c-0.7-1.2-1.2-2.5-1.3-3.9c0,0,0,0,0,0
	c0-0.2-0.1-0.5-0.1-0.7c0-1.1,0.2-2.3,0.7-3.3l0,0l0,0c0.5,0.4,1.3,0.4,2.1,0.5c1.3,0.1,1.8,0.2,1.7,0.8c0,0.5-0.5,0.9-1.1,1.3
	c-0.7,0.6-1.7,1.3-1.4,2.5c0.3,1.2,1.3,1.3,2.1,1.3c0.5,0,1,0.1,1.5,0.3c0.5,0.3,0.9,0.7,1.1,1.4C-71.8,15.4-71.7,16.6-72.5,18.3z
	 M-65.9,17.6c-1.3,0.7-2.7,1-4.1,1c-0.6,0-1.2-0.1-1.7-0.2l0,0l0,0c0.9-1.8,0.8-3.2,0.5-3.9c-0.3-0.8-0.8-1.5-1.5-1.8
	c-0.6-0.3-1.2-0.3-1.8-0.4l0,0c-0.9,0-1.2-0.1-1.3-0.7c-0.2-0.7,0.3-1.1,1.1-1.7c0.6-0.5,1.4-1.1,1.4-1.9c0-0.4-0.1-1-0.9-1.3
	c-0.5-0.2-1.1-0.2-1.6-0.3c-0.7-0.1-1.5-0.1-1.8-0.5l0,0l0,0c1.5-2.8,4.4-4.6,7.6-4.6c1.8,0,3.7,0.6,5.1,1.7c0,0,1.3,1,1.9,1.9
	c0.7,0.9,1.1,1.9,1.4,3l0,0l0,0c0,0,0,0,0,0c-1.1,0-1.5,0.9-1.8,1.5c-0.2,0.4-0.3,0.7-0.6,0.9c0,0,0,0,0,0c0,0-0.1,0-0.2-0.1
	c-0.2-0.1-0.3-0.3-0.5-0.5l0,0c-0.5-0.5-1.1-1-1.8-1c0,0,0,0,0,0c-0.4,0-0.8,0.2-1.1,0.6c-0.8,0.9-1.1,1.5-1,2.2
	c0.1,0.6,0.6,1.1,1.1,1.6l0.1,0.1c1.3,1.2,1.2,1.7,1.1,2.2C-66.5,16-66.6,16.6-65.9,17.6L-65.9,17.6L-65.9,17.6z M-65.2,17.2
	L-65.2,17.2L-65.2,17.2c-0.6-0.8-0.6-1.2-0.5-1.6c0.1-0.3,0.1-0.7-0.1-1.2c-0.2-0.5-0.6-1-1.3-1.7l-0.1-0.1
	c-0.4-0.5-0.8-0.9-0.9-1.2c0-0.2,0-0.7,0.8-1.5c0.2-0.2,0.4-0.3,0.6-0.3c0,0,0,0,0,0c0.4,0,0.8,0.4,1.2,0.8c0.5,0.5,1.1,1.1,1.8,0.7
	c0.4-0.3,0.7-0.7,0.9-1.2c0.4-0.8,0.6-1.2,1.3-1.1l0,0l0,0c0.1,0.4,0.1,0.9,0.1,1.3C-61.3,12.9-62.8,15.6-65.2,17.2z"/>
<path d="M-150,19.4c-5.2,0-9.4-4.2-9.4-9.4c0-5.2,4.2-9.4,9.4-9.4s9.4,4.2,9.4,9.4C-140.6,15.2-144.8,19.4-150,19.4z M-150,1.4
	c-4.7,0-8.6,3.9-8.6,8.6c0,4.7,3.9,8.6,8.6,8.6c4.7,0,8.6-3.9,8.6-8.6C-141.4,5.3-145.3,1.4-150,1.4z"/>
<g>
	<path d="M-28.3,9.2c0.4,0.2,0.8,0.6,1,1s0.4,0.9,0.4,1.5c0,0.6-0.1,1.1-0.4,1.6c-0.3,0.5-0.7,0.8-1.2,1.1c-0.5,0.3-1.1,0.4-1.8,0.4
		c-0.6,0-1.2-0.1-1.7-0.3c-0.6-0.2-1-0.4-1.4-0.8l0.6-1.2c0.8,0.6,1.7,0.9,2.6,0.9c0.6,0,1-0.1,1.3-0.4s0.5-0.7,0.5-1.2
		c0-0.5-0.2-0.9-0.5-1.2c-0.3-0.3-0.7-0.5-1.3-0.5c-0.4,0-0.7,0.1-1,0.2s-0.6,0.3-0.9,0.6h-1V5.5h5.8v1.3h-4.2v2.5
		c0.5-0.3,1-0.5,1.7-0.5C-29.2,8.8-28.7,8.9-28.3,9.2"/>
	<path d="M-30.1,0.5c-4.1,0-7.8,2.5-9.2,6.3l0,0.1h0.8l0-0.1c1.3-3.4,4.7-5.6,8.3-5.6c4.9,0,8.9,3.9,8.9,8.7c0,4.6-3.6,8.5-8.2,8.9
		l-0.1,0l-0.1,0.5h0.1c0.1,0,0.3,0,0.4,0c5-0.5,8.7-4.6,8.7-9.4C-20.4,4.8-24.7,0.5-30.1,0.5z"/>
</g>
<path d="M15.7,2.8C16.1,2,16.6,1.2,17,0.4l-0.8-0.3c-0.4,0.7-0.9,1.4-1.3,2.2c-1.5-0.9-3.2-1.4-5-1.4c-4.1,0-7.8,2.5-9.2,6.3l0,0.1
	h0.8l0-0.1c1.3-3.4,4.7-5.6,8.3-5.6c1.7,0,3.3,0.5,4.6,1.3c-1.8,3.1-3.4,6.2-4.7,9.4C9,10.6,8.1,9,7.1,7.4L5.7,8.1
	c1.4,2,2.6,4.1,3.6,6.3l0.9-0.1c1.5-3.7,3.2-7.3,5.1-10.8c2.1,1.6,3.5,4.1,3.5,6.9c0,4.6-3.6,8.5-8.2,8.9l-0.1,0l-0.1,0.5h0.1
	c0.1,0,0.3,0,0.4,0c5-0.5,8.7-4.6,8.7-9.4C19.6,7.3,18.1,4.5,15.7,2.8z"/>
<g>
	<path d="M52,5.3c-0.5,0-0.9,0.4-0.9,0.9s0.4,0.9,0.9,0.9c0.5,0,0.9-0.4,0.9-0.9S52.5,5.3,52,5.3z"/>
	<path d="M59.2,0.4H40.8c-0.3,0-0.5,0.2-0.5,0.5v18.3c0,0,0,0,0,0.1c0,0,0,0.1,0,0.1c0,0,0,0,0,0.1l0.1,0.1c0,0,0,0,0,0h0.1l0,0.1
		h0.1l0,0.1c0,0,0,0,0.1,0h18.4c0.3,0,0.5-0.2,0.5-0.5V0.8C59.6,0.6,59.4,0.4,59.2,0.4z M41.3,14.8l0.1-0.1l6.7-4.2l2,2l-8.8,5.8
		V14.8z M58.7,18.7H42.4l12.1-7.9l4.2,4V18.7z M58.7,13.4l-3.8-3.7c-0.2-0.2-0.4-0.2-0.6-0.1L50.9,12l-2.4-2.4
		c-0.2-0.2-0.4-0.2-0.6-0.1l-6.6,4.2V1.3h17.4V13.4z"/>
</g>
</svg>
